<svg width="91" height="76" viewBox="0 0 91 76" fill="none" xmlns="http://www.w3.org/2000/svg">
<path d="M28.5634 75.1746C18.0497 75.1746 8.24907 72.1034 0 66.8041C7.00373 67.2593 19.3637 66.1692 27.0516 58.8043C15.4865 58.2713 10.2709 49.3628 9.59055 45.5558C10.5732 45.9365 15.2597 46.3933 17.9053 45.3273C4.60167 41.9771 2.56076 30.2514 3.0143 26.6728C5.50874 28.4241 9.74173 29.0332 11.4047 28.8809C-0.991923 19.9724 3.46783 6.57159 5.65992 3.67824C14.5562 16.0568 27.8889 23.0091 44.3832 23.3958C44.0722 22.0259 43.908 20.5997 43.908 19.1349C43.908 8.62198 52.3686 0.0996094 62.8053 0.0996094C68.2583 0.0996094 73.1718 2.42613 76.621 6.14751C80.2649 5.28992 85.749 3.28236 88.43 1.54629C87.0786 6.41931 82.8715 10.4844 80.3267 11.9911C80.3478 12.0423 80.306 11.9396 80.3267 11.9911C82.5621 11.6515 88.6106 10.484 91 8.85582C89.8184 11.5934 85.358 16.1452 81.6976 18.6935C82.3786 48.8594 59.3985 75.1746 28.5634 75.1746Z" fill="#47ACDF"/>
</svg>
