<svg width="91" height="91" viewBox="0 0 91 91" fill="none" xmlns="http://www.w3.org/2000/svg">
<path d="M90.9995 46.5112C90.9995 42.7701 90.6897 40.0401 90.0193 37.209H46.4277V54.0945H72.015C71.4993 58.2908 68.7136 64.6103 62.523 68.8567L62.4362 69.422L76.219 79.8859L77.1739 79.9793C85.9437 72.0419 90.9995 60.3635 90.9995 46.5112" fill="#4285F4"/>
<path d="M46.4257 90.9998C58.9613 90.9998 69.485 86.9551 77.1718 79.9785L62.5209 68.8558C58.6003 71.5353 53.3383 73.4059 46.4257 73.4059C34.1479 73.4059 23.7273 65.4688 20.0127 54.498L19.4682 54.5434L5.13664 65.413L4.94922 65.9236C12.5841 80.7871 28.2667 90.9998 46.4257 90.9998Z" fill="#34A853"/>
<path d="M20.0158 54.5006C19.0357 51.6695 18.4684 48.6359 18.4684 45.5016C18.4684 42.3669 19.0357 39.3337 19.9642 36.5026L19.9383 35.8996L5.42708 24.8555L4.9523 25.0768C1.80559 31.2447 0 38.171 0 45.5016C0 52.8322 1.80559 59.7581 4.9523 65.926L20.0158 54.5006" fill="#FBBC05"/>
<path d="M46.4259 17.5934C55.1441 17.5934 61.025 21.2839 64.3784 24.368L77.4816 11.8301C69.4342 4.4995 58.9616 0 46.4259 0C28.2669 0 12.5841 10.2122 4.94922 25.0756L19.9612 36.5014C23.7275 25.5307 34.1481 17.5934 46.4259 17.5934" fill="#EB4335"/>
</svg>
